<svg id="mermaid-219a82f4-58b9-4599-8bc9-b40f4e7f560f" width="100%" xmlns="http://www.w3.org/2000/svg" style="max-width: 418.99102783203125px;" viewBox="0 0 418.99102783203125 540" role="graphics-document document" aria-roledescription="er"><style>#mermaid-219a82f4-58b9-4599-8bc9-b40f4e7f560f{font-family:"trebuchet ms",verdana,arial,sans-serif;font-size:16px;fill:#ccc;}#mermaid-219a82f4-58b9-4599-8bc9-b40f4e7f560f .error-icon{fill:#a44141;}#mermaid-219a82f4-58b9-4599-8bc9-b40f4e7f560f .error-text{fill:#ddd;stroke:#ddd;}#mermaid-219a82f4-58b9-4599-8bc9-b40f4e7f560f .edge-thickness-normal{stroke-width:2px;}#mermaid-219a82f4-58b9-4599-8bc9-b40f4e7f560f .edge-thickness-thick{stroke-width:3.5px;}#mermaid-219a82f4-58b9-4599-8bc9-b40f4e7f560f .edge-pattern-solid{stroke-dasharray:0;}#mermaid-219a82f4-58b9-4599-8bc9-b40f4e7f560f .edge-pattern-dashed{stroke-dasharray:3;}#mermaid-219a82f4-58b9-4599-8bc9-b40f4e7f560f .edge-pattern-dotted{stroke-dasharray:2;}#mermaid-219a82f4-58b9-4599-8bc9-b40f4e7f560f .marker{fill:lightgrey;stroke:lightgrey;}#mermaid-219a82f4-58b9-4599-8bc9-b40f4e7f560f .marker.cross{stroke:lightgrey;}#mermaid-219a82f4-58b9-4599-8bc9-b40f4e7f560f svg{font-family:"trebuchet ms",verdana,arial,sans-serif;font-size:16px;}#mermaid-219a82f4-58b9-4599-8bc9-b40f4e7f560f .entityBox{fill:#1f2020;stroke:#81B1DB;}#mermaid-219a82f4-58b9-4599-8bc9-b40f4e7f560f .attributeBoxOdd{fill:hsl(0, 0%, 32%);stroke:#81B1DB;}#mermaid-219a82f4-58b9-4599-8bc9-b40f4e7f560f .attributeBoxEven{fill:hsl(0, 0%, 22%);stroke:#81B1DB;}#mermaid-219a82f4-58b9-4599-8bc9-b40f4e7f560f .relationshipLabelBox{fill:hsl(20, 1.5873015873%, 12.3529411765%);opacity:0.7;background-color:hsl(20, 1.5873015873%, 12.3529411765%);}#mermaid-219a82f4-58b9-4599-8bc9-b40f4e7f560f .relationshipLabelBox rect{opacity:0.5;}#mermaid-219a82f4-58b9-4599-8bc9-b40f4e7f560f .relationshipLine{stroke:lightgrey;}#mermaid-219a82f4-58b9-4599-8bc9-b40f4e7f560f .entityTitleText{text-anchor:middle;font-size:18px;fill:#ccc;}#mermaid-219a82f4-58b9-4599-8bc9-b40f4e7f560f #MD_PARENT_START{fill:#f5f5f5!important;stroke:lightgrey!important;stroke-width:1;}#mermaid-219a82f4-58b9-4599-8bc9-b40f4e7f560f #MD_PARENT_END{fill:#f5f5f5!important;stroke:lightgrey!important;stroke-width:1;}#mermaid-219a82f4-58b9-4599-8bc9-b40f4e7f560f :root{--mermaid-font-family:"trebuchet ms",verdana,arial,sans-serif;}</style><g></g><defs><marker id="MD_PARENT_START" refX="0" refY="7" markerWidth="190" markerHeight="240" orient="auto"><path d="M 18,7 L9,13 L1,7 L9,1 Z"></path></marker></defs><defs><marker id="MD_PARENT_END" refX="19" refY="7" markerWidth="20" markerHeight="28" orient="auto"><path d="M 18,7 L9,13 L1,7 L9,1 Z"></path></marker></defs><defs><marker id="ONLY_ONE_START" refX="0" refY="9" markerWidth="18" markerHeight="18" orient="auto"><path stroke="gray" fill="none" d="M9,0 L9,18 M15,0 L15,18"></path></marker></defs><defs><marker id="ONLY_ONE_END" refX="18" refY="9" markerWidth="18" markerHeight="18" orient="auto"><path stroke="gray" fill="none" d="M3,0 L3,18 M9,0 L9,18"></path></marker></defs><defs><marker id="ZERO_OR_ONE_START" refX="0" refY="9" markerWidth="30" markerHeight="18" orient="auto"><circle stroke="gray" fill="white" cx="21" cy="9" r="6"></circle><path stroke="gray" fill="none" d="M9,0 L9,18"></path></marker></defs><defs><marker id="ZERO_OR_ONE_END" refX="30" refY="9" markerWidth="30" markerHeight="18" orient="auto"><circle stroke="gray" fill="white" cx="9" cy="9" r="6"></circle><path stroke="gray" fill="none" d="M21,0 L21,18"></path></marker></defs><defs><marker id="ONE_OR_MORE_START" refX="18" refY="18" markerWidth="45" markerHeight="36" orient="auto"><path stroke="gray" fill="none" d="M0,18 Q 18,0 36,18 Q 18,36 0,18 M42,9 L42,27"></path></marker></defs><defs><marker id="ONE_OR_MORE_END" refX="27" refY="18" markerWidth="45" markerHeight="36" orient="auto"><path stroke="gray" fill="none" d="M3,9 L3,27 M9,18 Q27,0 45,18 Q27,36 9,18"></path></marker></defs><defs><marker id="ZERO_OR_MORE_START" refX="18" refY="18" markerWidth="57" markerHeight="36" orient="auto"><circle stroke="gray" fill="white" cx="48" cy="18" r="6"></circle><path stroke="gray" fill="none" d="M0,18 Q18,0 36,18 Q18,36 0,18"></path></marker></defs><defs><marker id="ZERO_OR_MORE_END" refX="39" refY="18" markerWidth="57" markerHeight="36" orient="auto"><circle stroke="gray" fill="white" cx="9" cy="18" r="6"></circle><path stroke="gray" fill="none" d="M21,18 Q39,0 57,18 Q39,36 21,18"></path></marker></defs><path class="er relationshipLine" d="M90.47,242L90.47,250.333C90.47,258.667,90.47,275.333,98.923,293.479C107.377,311.626,124.284,331.251,132.738,341.064L141.192,350.877" marker-end="url(#ZERO_OR_MORE_END)" marker-start="url(#ONLY_ONE_START)" style="stroke: gray; fill: none;"></path><path class="er relationshipLine" d="M329.965,187L329.965,204.5C329.965,222,329.965,257,321.512,284.313C313.058,311.626,296.151,331.251,287.697,341.064L279.243,350.877" marker-end="url(#ZERO_OR_MORE_END)" marker-start="url(#ONLY_ONE_START)" style="stroke: gray; fill: none;"></path><g id="entity-USER-6e7e2962-0c6f-577d-a7fd-2ce3a0cfd2c8" transform="translate(20,20 )"><rect class="er entityBox" x="0" y="0" width="140.93930053710938" height="222"></rect><text class="er entityLabel" id="text-entity-USER-6e7e2962-0c6f-577d-a7fd-2ce3a0cfd2c8" x="0" y="0" transform="translate(70.46965026855469,12)" style="dominant-baseline: middle; text-anchor: middle; font-size: 12px;">USER</text><rect class="er attributeBoxOdd" x="0" y="24" width="52.06849670410156" height="22"></rect><text class="er entityLabel" id="text-entity-USER-6e7e2962-0c6f-577d-a7fd-2ce3a0cfd2c8-attr-1-type" x="0" y="0" transform="translate(5,35)" style="dominant-baseline: middle; font-size: 10.2px;">int</text><rect class="er attributeBoxOdd" x="52.06849670410156" y="24" width="65.25674438476562" height="22"></rect><text class="er entityLabel" id="text-entity-USER-6e7e2962-0c6f-577d-a7fd-2ce3a0cfd2c8-attr-1-name" x="0" y="0" transform="translate(57.06849670410156,35)" style="dominant-baseline: middle; font-size: 10.2px;">id</text><rect class="er attributeBoxOdd" x="117.32524108886719" y="24" width="23.614059448242188" height="22"></rect><text class="er entityLabel" id="text-entity-USER-6e7e2962-0c6f-577d-a7fd-2ce3a0cfd2c8-attr-1-key" x="0" y="0" transform="translate(122.32524108886719,35)" style="dominant-baseline: middle; font-size: 10.2px;">PK</text><rect class="er attributeBoxEven" x="0" y="46" width="52.06849670410156" height="22"></rect><text class="er entityLabel" id="text-entity-USER-6e7e2962-0c6f-577d-a7fd-2ce3a0cfd2c8-attr-2-type" x="0" y="0" transform="translate(5,57)" style="dominant-baseline: middle; font-size: 10.2px;">string</text><rect class="er attributeBoxEven" x="52.06849670410156" y="46" width="65.25674438476562" height="22"></rect><text class="er entityLabel" id="text-entity-USER-6e7e2962-0c6f-577d-a7fd-2ce3a0cfd2c8-attr-2-name" x="0" y="0" transform="translate(57.06849670410156,57)" style="dominant-baseline: middle; font-size: 10.2px;">username</text><rect class="er attributeBoxEven" x="117.32524108886719" y="46" width="23.614059448242188" height="22"></rect><text class="er entityLabel" id="text-entity-USER-6e7e2962-0c6f-577d-a7fd-2ce3a0cfd2c8-attr-2-key" x="0" y="0" transform="translate(122.32524108886719,57)" style="dominant-baseline: middle; font-size: 10.2px;">UK</text><rect class="er attributeBoxOdd" x="0" y="68" width="52.06849670410156" height="22"></rect><text class="er entityLabel" id="text-entity-USER-6e7e2962-0c6f-577d-a7fd-2ce3a0cfd2c8-attr-3-type" x="0" y="0" transform="translate(5,79)" style="dominant-baseline: middle; font-size: 10.2px;">string</text><rect class="er attributeBoxOdd" x="52.06849670410156" y="68" width="65.25674438476562" height="22"></rect><text class="er entityLabel" id="text-entity-USER-6e7e2962-0c6f-577d-a7fd-2ce3a0cfd2c8-attr-3-name" x="0" y="0" transform="translate(57.06849670410156,79)" style="dominant-baseline: middle; font-size: 10.2px;">email</text><rect class="er attributeBoxOdd" x="117.32524108886719" y="68" width="23.614059448242188" height="22"></rect><text class="er entityLabel" id="text-entity-USER-6e7e2962-0c6f-577d-a7fd-2ce3a0cfd2c8-attr-3-key" x="0" y="0" transform="translate(122.32524108886719,79)" style="dominant-baseline: middle; font-size: 10.2px;">UK</text><rect class="er attributeBoxEven" x="0" y="90" width="52.06849670410156" height="22"></rect><text class="er entityLabel" id="text-entity-USER-6e7e2962-0c6f-577d-a7fd-2ce3a0cfd2c8-attr-4-type" x="0" y="0" transform="translate(5,101)" style="dominant-baseline: middle; font-size: 10.2px;">string</text><rect class="er attributeBoxEven" x="52.06849670410156" y="90" width="65.25674438476562" height="22"></rect><text class="er entityLabel" id="text-entity-USER-6e7e2962-0c6f-577d-a7fd-2ce3a0cfd2c8-attr-4-name" x="0" y="0" transform="translate(57.06849670410156,101)" style="dominant-baseline: middle; font-size: 10.2px;">password</text><rect class="er attributeBoxEven" x="117.32524108886719" y="90" width="23.614059448242188" height="22"></rect><text class="er entityLabel" id="text-entity-USER-6e7e2962-0c6f-577d-a7fd-2ce3a0cfd2c8-attr-4-key" x="0" y="0" transform="translate(122.32524108886719,101)" style="dominant-baseline: middle; font-size: 10.2px;"></text><rect class="er attributeBoxOdd" x="0" y="112" width="52.06849670410156" height="22"></rect><text class="er entityLabel" id="text-entity-USER-6e7e2962-0c6f-577d-a7fd-2ce3a0cfd2c8-attr-5-type" x="0" y="0" transform="translate(5,123)" style="dominant-baseline: middle; font-size: 10.2px;">string</text><rect class="er attributeBoxOdd" x="52.06849670410156" y="112" width="65.25674438476562" height="22"></rect><text class="er entityLabel" id="text-entity-USER-6e7e2962-0c6f-577d-a7fd-2ce3a0cfd2c8-attr-5-name" x="0" y="0" transform="translate(57.06849670410156,123)" style="dominant-baseline: middle; font-size: 10.2px;">first_name</text><rect class="er attributeBoxOdd" x="117.32524108886719" y="112" width="23.614059448242188" height="22"></rect><text class="er entityLabel" id="text-entity-USER-6e7e2962-0c6f-577d-a7fd-2ce3a0cfd2c8-attr-5-key" x="0" y="0" transform="translate(122.32524108886719,123)" style="dominant-baseline: middle; font-size: 10.2px;"></text><rect class="er attributeBoxEven" x="0" y="134" width="52.06849670410156" height="22"></rect><text class="er entityLabel" id="text-entity-USER-6e7e2962-0c6f-577d-a7fd-2ce3a0cfd2c8-attr-6-type" x="0" y="0" transform="translate(5,145)" style="dominant-baseline: middle; font-size: 10.2px;">string</text><rect class="er attributeBoxEven" x="52.06849670410156" y="134" width="65.25674438476562" height="22"></rect><text class="er entityLabel" id="text-entity-USER-6e7e2962-0c6f-577d-a7fd-2ce3a0cfd2c8-attr-6-name" x="0" y="0" transform="translate(57.06849670410156,145)" style="dominant-baseline: middle; font-size: 10.2px;">last_name</text><rect class="er attributeBoxEven" x="117.32524108886719" y="134" width="23.614059448242188" height="22"></rect><text class="er entityLabel" id="text-entity-USER-6e7e2962-0c6f-577d-a7fd-2ce3a0cfd2c8-attr-6-key" x="0" y="0" transform="translate(122.32524108886719,145)" style="dominant-baseline: middle; font-size: 10.2px;"></text><rect class="er attributeBoxOdd" x="0" y="156" width="52.06849670410156" height="22"></rect><text class="er entityLabel" id="text-entity-USER-6e7e2962-0c6f-577d-a7fd-2ce3a0cfd2c8-attr-7-type" x="0" y="0" transform="translate(5,167)" style="dominant-baseline: middle; font-size: 10.2px;">boolean</text><rect class="er attributeBoxOdd" x="52.06849670410156" y="156" width="65.25674438476562" height="22"></rect><text class="er entityLabel" id="text-entity-USER-6e7e2962-0c6f-577d-a7fd-2ce3a0cfd2c8-attr-7-name" x="0" y="0" transform="translate(57.06849670410156,167)" style="dominant-baseline: middle; font-size: 10.2px;">is_active</text><rect class="er attributeBoxOdd" x="117.32524108886719" y="156" width="23.614059448242188" height="22"></rect><text class="er entityLabel" id="text-entity-USER-6e7e2962-0c6f-577d-a7fd-2ce3a0cfd2c8-attr-7-key" x="0" y="0" transform="translate(122.32524108886719,167)" style="dominant-baseline: middle; font-size: 10.2px;"></text><rect class="er attributeBoxEven" x="0" y="178" width="52.06849670410156" height="22"></rect><text class="er entityLabel" id="text-entity-USER-6e7e2962-0c6f-577d-a7fd-2ce3a0cfd2c8-attr-8-type" x="0" y="0" transform="translate(5,189)" style="dominant-baseline: middle; font-size: 10.2px;">datetime</text><rect class="er attributeBoxEven" x="52.06849670410156" y="178" width="65.25674438476562" height="22"></rect><text class="er entityLabel" id="text-entity-USER-6e7e2962-0c6f-577d-a7fd-2ce3a0cfd2c8-attr-8-name" x="0" y="0" transform="translate(57.06849670410156,189)" style="dominant-baseline: middle; font-size: 10.2px;">date_joined</text><rect class="er attributeBoxEven" x="117.32524108886719" y="178" width="23.614059448242188" height="22"></rect><text class="er entityLabel" id="text-entity-USER-6e7e2962-0c6f-577d-a7fd-2ce3a0cfd2c8-attr-8-key" x="0" y="0" transform="translate(122.32524108886719,189)" style="dominant-baseline: middle; font-size: 10.2px;"></text><rect class="er attributeBoxOdd" x="0" y="200" width="52.06849670410156" height="22"></rect><text class="er entityLabel" id="text-entity-USER-6e7e2962-0c6f-577d-a7fd-2ce3a0cfd2c8-attr-9-type" x="0" y="0" transform="translate(5,211)" style="dominant-baseline: middle; font-size: 10.2px;">datetime</text><rect class="er attributeBoxOdd" x="52.06849670410156" y="200" width="65.25674438476562" height="22"></rect><text class="er entityLabel" id="text-entity-USER-6e7e2962-0c6f-577d-a7fd-2ce3a0cfd2c8-attr-9-name" x="0" y="0" transform="translate(57.06849670410156,211)" style="dominant-baseline: middle; font-size: 10.2px;">last_login</text><rect class="er attributeBoxOdd" x="117.32524108886719" y="200" width="23.614059448242188" height="22"></rect><text class="er entityLabel" id="text-entity-USER-6e7e2962-0c6f-577d-a7fd-2ce3a0cfd2c8-attr-9-key" x="0" y="0" transform="translate(122.32524108886719,211)" style="dominant-baseline: middle; font-size: 10.2px;"></text></g><g id="entity-MOVIE-a23c4e67-6a87-5cd1-a3cc-14222b90dddc" transform="translate(260.9393005371094,75 )"><rect class="er entityBox" x="0" y="0" width="138.0517120361328" height="112"></rect><text class="er entityLabel" id="text-entity-MOVIE-a23c4e67-6a87-5cd1-a3cc-14222b90dddc" x="0" y="0" transform="translate(69.0258560180664,12)" style="dominant-baseline: middle; text-anchor: middle; font-size: 12px;">MOVIE</text><rect class="er attributeBoxOdd" x="0" y="24" width="52.06849670410156" height="22"></rect><text class="er entityLabel" id="text-entity-MOVIE-a23c4e67-6a87-5cd1-a3cc-14222b90dddc-attr-1-type" x="0" y="0" transform="translate(5,35)" style="dominant-baseline: middle; font-size: 10.2px;">int</text><rect class="er attributeBoxOdd" x="52.06849670410156" y="24" width="63.2955322265625" height="22"></rect><text class="er entityLabel" id="text-entity-MOVIE-a23c4e67-6a87-5cd1-a3cc-14222b90dddc-attr-1-name" x="0" y="0" transform="translate(57.06849670410156,35)" style="dominant-baseline: middle; font-size: 10.2px;">id</text><rect class="er attributeBoxOdd" x="115.36402893066406" y="24" width="22.68768310546875" height="22"></rect><text class="er entityLabel" id="text-entity-MOVIE-a23c4e67-6a87-5cd1-a3cc-14222b90dddc-attr-1-key" x="0" y="0" transform="translate(120.36402893066406,35)" style="dominant-baseline: middle; font-size: 10.2px;">PK</text><rect class="er attributeBoxEven" x="0" y="46" width="52.06849670410156" height="22"></rect><text class="er entityLabel" id="text-entity-MOVIE-a23c4e67-6a87-5cd1-a3cc-14222b90dddc-attr-2-type" x="0" y="0" transform="translate(5,57)" style="dominant-baseline: middle; font-size: 10.2px;">string</text><rect class="er attributeBoxEven" x="52.06849670410156" y="46" width="63.2955322265625" height="22"></rect><text class="er entityLabel" id="text-entity-MOVIE-a23c4e67-6a87-5cd1-a3cc-14222b90dddc-attr-2-name" x="0" y="0" transform="translate(57.06849670410156,57)" style="dominant-baseline: middle; font-size: 10.2px;">title</text><rect class="er attributeBoxEven" x="115.36402893066406" y="46" width="22.68768310546875" height="22"></rect><text class="er entityLabel" id="text-entity-MOVIE-a23c4e67-6a87-5cd1-a3cc-14222b90dddc-attr-2-key" x="0" y="0" transform="translate(120.36402893066406,57)" style="dominant-baseline: middle; font-size: 10.2px;"></text><rect class="er attributeBoxOdd" x="0" y="68" width="52.06849670410156" height="22"></rect><text class="er entityLabel" id="text-entity-MOVIE-a23c4e67-6a87-5cd1-a3cc-14222b90dddc-attr-3-type" x="0" y="0" transform="translate(5,79)" style="dominant-baseline: middle; font-size: 10.2px;">datetime</text><rect class="er attributeBoxOdd" x="52.06849670410156" y="68" width="63.2955322265625" height="22"></rect><text class="er entityLabel" id="text-entity-MOVIE-a23c4e67-6a87-5cd1-a3cc-14222b90dddc-attr-3-name" x="0" y="0" transform="translate(57.06849670410156,79)" style="dominant-baseline: middle; font-size: 10.2px;">created_at</text><rect class="er attributeBoxOdd" x="115.36402893066406" y="68" width="22.68768310546875" height="22"></rect><text class="er entityLabel" id="text-entity-MOVIE-a23c4e67-6a87-5cd1-a3cc-14222b90dddc-attr-3-key" x="0" y="0" transform="translate(120.36402893066406,79)" style="dominant-baseline: middle; font-size: 10.2px;"></text><rect class="er attributeBoxEven" x="0" y="90" width="52.06849670410156" height="22"></rect><text class="er entityLabel" id="text-entity-MOVIE-a23c4e67-6a87-5cd1-a3cc-14222b90dddc-attr-4-type" x="0" y="0" transform="translate(5,101)" style="dominant-baseline: middle; font-size: 10.2px;">datetime</text><rect class="er attributeBoxEven" x="52.06849670410156" y="90" width="63.2955322265625" height="22"></rect><text class="er entityLabel" id="text-entity-MOVIE-a23c4e67-6a87-5cd1-a3cc-14222b90dddc-attr-4-name" x="0" y="0" transform="translate(57.06849670410156,101)" style="dominant-baseline: middle; font-size: 10.2px;">updated_at</text><rect class="er attributeBoxEven" x="115.36402893066406" y="90" width="22.68768310546875" height="22"></rect><text class="er entityLabel" id="text-entity-MOVIE-a23c4e67-6a87-5cd1-a3cc-14222b90dddc-attr-4-key" x="0" y="0" transform="translate(120.36402893066406,101)" style="dominant-baseline: middle; font-size: 10.2px;"></text></g><g id="entity-REVIEW-39f1e8d0-9e3b-5c04-a665-2df785f19ed7" transform="translate(141.19154739379883,342 )"><rect class="er entityBox" x="0" y="0" width="138.0517120361328" height="178"></rect><text class="er entityLabel" id="text-entity-REVIEW-39f1e8d0-9e3b-5c04-a665-2df785f19ed7" x="0" y="0" transform="translate(69.0258560180664,12)" style="dominant-baseline: middle; text-anchor: middle; font-size: 12px;">REVIEW</text><rect class="er attributeBoxOdd" x="0" y="24" width="52.06849670410156" height="22"></rect><text class="er entityLabel" id="text-entity-REVIEW-39f1e8d0-9e3b-5c04-a665-2df785f19ed7-attr-1-type" x="0" y="0" transform="translate(5,35)" style="dominant-baseline: middle; font-size: 10.2px;">int</text><rect class="er attributeBoxOdd" x="52.06849670410156" y="24" width="63.2955322265625" height="22"></rect><text class="er entityLabel" id="text-entity-REVIEW-39f1e8d0-9e3b-5c04-a665-2df785f19ed7-attr-1-name" x="0" y="0" transform="translate(57.06849670410156,35)" style="dominant-baseline: middle; font-size: 10.2px;">id</text><rect class="er attributeBoxOdd" x="115.36402893066406" y="24" width="22.68768310546875" height="22"></rect><text class="er entityLabel" id="text-entity-REVIEW-39f1e8d0-9e3b-5c04-a665-2df785f19ed7-attr-1-key" x="0" y="0" transform="translate(120.36402893066406,35)" style="dominant-baseline: middle; font-size: 10.2px;">PK</text><rect class="er attributeBoxEven" x="0" y="46" width="52.06849670410156" height="22"></rect><text class="er entityLabel" id="text-entity-REVIEW-39f1e8d0-9e3b-5c04-a665-2df785f19ed7-attr-2-type" x="0" y="0" transform="translate(5,57)" style="dominant-baseline: middle; font-size: 10.2px;">text</text><rect class="er attributeBoxEven" x="52.06849670410156" y="46" width="63.2955322265625" height="22"></rect><text class="er entityLabel" id="text-entity-REVIEW-39f1e8d0-9e3b-5c04-a665-2df785f19ed7-attr-2-name" x="0" y="0" transform="translate(57.06849670410156,57)" style="dominant-baseline: middle; font-size: 10.2px;">content</text><rect class="er attributeBoxEven" x="115.36402893066406" y="46" width="22.68768310546875" height="22"></rect><text class="er entityLabel" id="text-entity-REVIEW-39f1e8d0-9e3b-5c04-a665-2df785f19ed7-attr-2-key" x="0" y="0" transform="translate(120.36402893066406,57)" style="dominant-baseline: middle; font-size: 10.2px;"></text><rect class="er attributeBoxOdd" x="0" y="68" width="52.06849670410156" height="22"></rect><text class="er entityLabel" id="text-entity-REVIEW-39f1e8d0-9e3b-5c04-a665-2df785f19ed7-attr-3-type" x="0" y="0" transform="translate(5,79)" style="dominant-baseline: middle; font-size: 10.2px;">int</text><rect class="er attributeBoxOdd" x="52.06849670410156" y="68" width="63.2955322265625" height="22"></rect><text class="er entityLabel" id="text-entity-REVIEW-39f1e8d0-9e3b-5c04-a665-2df785f19ed7-attr-3-name" x="0" y="0" transform="translate(57.06849670410156,79)" style="dominant-baseline: middle; font-size: 10.2px;">rating</text><rect class="er attributeBoxOdd" x="115.36402893066406" y="68" width="22.68768310546875" height="22"></rect><text class="er entityLabel" id="text-entity-REVIEW-39f1e8d0-9e3b-5c04-a665-2df785f19ed7-attr-3-key" x="0" y="0" transform="translate(120.36402893066406,79)" style="dominant-baseline: middle; font-size: 10.2px;"></text><rect class="er attributeBoxEven" x="0" y="90" width="52.06849670410156" height="22"></rect><text class="er entityLabel" id="text-entity-REVIEW-39f1e8d0-9e3b-5c04-a665-2df785f19ed7-attr-4-type" x="0" y="0" transform="translate(5,101)" style="dominant-baseline: middle; font-size: 10.2px;">datetime</text><rect class="er attributeBoxEven" x="52.06849670410156" y="90" width="63.2955322265625" height="22"></rect><text class="er entityLabel" id="text-entity-REVIEW-39f1e8d0-9e3b-5c04-a665-2df785f19ed7-attr-4-name" x="0" y="0" transform="translate(57.06849670410156,101)" style="dominant-baseline: middle; font-size: 10.2px;">created_at</text><rect class="er attributeBoxEven" x="115.36402893066406" y="90" width="22.68768310546875" height="22"></rect><text class="er entityLabel" id="text-entity-REVIEW-39f1e8d0-9e3b-5c04-a665-2df785f19ed7-attr-4-key" x="0" y="0" transform="translate(120.36402893066406,101)" style="dominant-baseline: middle; font-size: 10.2px;"></text><rect class="er attributeBoxOdd" x="0" y="112" width="52.06849670410156" height="22"></rect><text class="er entityLabel" id="text-entity-REVIEW-39f1e8d0-9e3b-5c04-a665-2df785f19ed7-attr-5-type" x="0" y="0" transform="translate(5,123)" style="dominant-baseline: middle; font-size: 10.2px;">datetime</text><rect class="er attributeBoxOdd" x="52.06849670410156" y="112" width="63.2955322265625" height="22"></rect><text class="er entityLabel" id="text-entity-REVIEW-39f1e8d0-9e3b-5c04-a665-2df785f19ed7-attr-5-name" x="0" y="0" transform="translate(57.06849670410156,123)" style="dominant-baseline: middle; font-size: 10.2px;">updated_at</text><rect class="er attributeBoxOdd" x="115.36402893066406" y="112" width="22.68768310546875" height="22"></rect><text class="er entityLabel" id="text-entity-REVIEW-39f1e8d0-9e3b-5c04-a665-2df785f19ed7-attr-5-key" x="0" y="0" transform="translate(120.36402893066406,123)" style="dominant-baseline: middle; font-size: 10.2px;"></text><rect class="er attributeBoxEven" x="0" y="134" width="52.06849670410156" height="22"></rect><text class="er entityLabel" id="text-entity-REVIEW-39f1e8d0-9e3b-5c04-a665-2df785f19ed7-attr-6-type" x="0" y="0" transform="translate(5,145)" style="dominant-baseline: middle; font-size: 10.2px;">int</text><rect class="er attributeBoxEven" x="52.06849670410156" y="134" width="63.2955322265625" height="22"></rect><text class="er entityLabel" id="text-entity-REVIEW-39f1e8d0-9e3b-5c04-a665-2df785f19ed7-attr-6-name" x="0" y="0" transform="translate(57.06849670410156,145)" style="dominant-baseline: middle; font-size: 10.2px;">user_id</text><rect class="er attributeBoxEven" x="115.36402893066406" y="134" width="22.68768310546875" height="22"></rect><text class="er entityLabel" id="text-entity-REVIEW-39f1e8d0-9e3b-5c04-a665-2df785f19ed7-attr-6-key" x="0" y="0" transform="translate(120.36402893066406,145)" style="dominant-baseline: middle; font-size: 10.2px;">FK</text><rect class="er attributeBoxOdd" x="0" y="156" width="52.06849670410156" height="22"></rect><text class="er entityLabel" id="text-entity-REVIEW-39f1e8d0-9e3b-5c04-a665-2df785f19ed7-attr-7-type" x="0" y="0" transform="translate(5,167)" style="dominant-baseline: middle; font-size: 10.2px;">int</text><rect class="er attributeBoxOdd" x="52.06849670410156" y="156" width="63.2955322265625" height="22"></rect><text class="er entityLabel" id="text-entity-REVIEW-39f1e8d0-9e3b-5c04-a665-2df785f19ed7-attr-7-name" x="0" y="0" transform="translate(57.06849670410156,167)" style="dominant-baseline: middle; font-size: 10.2px;">movie_id</text><rect class="er attributeBoxOdd" x="115.36402893066406" y="156" width="22.68768310546875" height="22"></rect><text class="er entityLabel" id="text-entity-REVIEW-39f1e8d0-9e3b-5c04-a665-2df785f19ed7-attr-7-key" x="0" y="0" transform="translate(120.36402893066406,167)" style="dominant-baseline: middle; font-size: 10.2px;">FK</text></g><rect class="er relationshipLabelBox" x="86.13912963867188" y="294.8055725097656" width="34.318359375" height="14"></rect><text class="er relationshipLabel" id="rel11" x="103.29830932617188" y="301.8055725097656" style="text-anchor: middle; dominant-baseline: middle; font-size: 12px;">writes</text><rect class="er relationshipLabelBox" x="290.9677734375" y="268.369384765625" width="65.927734375" height="14"></rect><text class="er relationshipLabel" id="rel12" x="323.931640625" y="275.369384765625" style="text-anchor: middle; dominant-baseline: middle; font-size: 12px;">reviewed_in</text></svg>