<svg width="300" height="450" viewBox="0 0 300 450" fill="none" xmlns="http://www.w3.org/2000/svg">
  <rect width="300" height="450" fill="#121212" />
  <rect x="24" y="24" width="252" height="402" rx="16" fill="#1E1E1E" stroke="#333333" stroke-width="2" />
  <g opacity="0.6">
    <path d="M150 120C132.327 120 118 134.327 118 152C118 169.673 132.327 184 150 184C167.673 184 182 169.673 182 152C182 134.327 167.673 120 150 120ZM150 136C159.941 136 168 144.059 168 154C168 163.941 159.941 172 150 172C140.059 172 132 163.941 132 154C132 144.059 140.059 136 150 136Z" fill="#3D3D3D" />
    <path d="M220 316C220 288.804 197.196 266 170 266H130C102.804 266 80 288.804 80 316V332H220V316ZM110 302C101.178 302 94 309.178 94 318C94 326.822 101.178 334 110 334C118.822 334 126 326.822 126 318C126 309.178 118.822 302 110 302ZM190 302C181.178 302 174 309.178 174 318C174 326.822 181.178 334 190 334C198.822 334 206 326.822 206 318C206 309.178 198.822 302 190 302Z" fill="#3D3D3D" />
  </g>
  <rect x="60" y="360" width="180" height="8" rx="4" fill="#2E2E2E" />
  <rect x="80" y="380" width="140" height="6" rx="3" fill="#2E2E2E" />
  <text x="150" y="418" text-anchor="middle" fill="#6F6F6F" font-family="Arial, sans-serif" font-size="16">Poster Unavailable</text>
</svg>